<mxfile host="app.diagrams.net" modified="2024-05-03T12:06:39.846Z" agent="Mozilla/5.0 (Windows NT 10.0; Win64; x64) AppleWebKit/537.36 (KHTML, like Gecko) Chrome/124.0.0.0 Safari/537.36" etag="W27cmKBo96mW9fYX9UKd" version="24.3.1" type="github">
  <diagram name="Page-1" id="pw156pJOFKXmEDGKwv3c">
    <mxGraphModel dx="934" dy="546" grid="1" gridSize="10" guides="1" tooltips="1" connect="1" arrows="1" fold="1" page="1" pageScale="1" pageWidth="827" pageHeight="1169" math="0" shadow="0">
      <root>
        <mxCell id="0" />
        <mxCell id="1" parent="0" />
        <mxCell id="O4c5-oZYDhCjqvf8xjBU-21" style="edgeStyle=orthogonalEdgeStyle;rounded=0;orthogonalLoop=1;jettySize=auto;html=1;entryX=0;entryY=0.5;entryDx=0;entryDy=0;" edge="1" parent="1" source="O4c5-oZYDhCjqvf8xjBU-2" target="O4c5-oZYDhCjqvf8xjBU-3">
          <mxGeometry relative="1" as="geometry">
            <Array as="points">
              <mxPoint x="45" y="175" />
            </Array>
          </mxGeometry>
        </mxCell>
        <mxCell id="O4c5-oZYDhCjqvf8xjBU-23" value="Commit" style="edgeLabel;html=1;align=center;verticalAlign=middle;resizable=0;points=[];" vertex="1" connectable="0" parent="O4c5-oZYDhCjqvf8xjBU-21">
          <mxGeometry x="0.3944" y="2" relative="1" as="geometry">
            <mxPoint y="-10" as="offset" />
          </mxGeometry>
        </mxCell>
        <mxCell id="O4c5-oZYDhCjqvf8xjBU-2" value="" style="sketch=0;outlineConnect=0;fontColor=#232F3E;gradientColor=none;fillColor=#01A88D;strokeColor=none;dashed=0;verticalLabelPosition=bottom;verticalAlign=top;align=center;html=1;fontSize=12;fontStyle=0;aspect=fixed;shape=mxgraph.aws4.mainframe_modernization_developer;" vertex="1" parent="1">
          <mxGeometry x="20" y="220" width="50" height="50" as="geometry" />
        </mxCell>
        <mxCell id="O4c5-oZYDhCjqvf8xjBU-24" style="edgeStyle=orthogonalEdgeStyle;rounded=0;orthogonalLoop=1;jettySize=auto;html=1;" edge="1" parent="1" source="O4c5-oZYDhCjqvf8xjBU-3" target="O4c5-oZYDhCjqvf8xjBU-12">
          <mxGeometry relative="1" as="geometry" />
        </mxCell>
        <mxCell id="O4c5-oZYDhCjqvf8xjBU-25" value="Webhook" style="edgeLabel;html=1;align=center;verticalAlign=middle;resizable=0;points=[];" vertex="1" connectable="0" parent="O4c5-oZYDhCjqvf8xjBU-24">
          <mxGeometry x="0.1838" y="-4" relative="1" as="geometry">
            <mxPoint x="-9" y="-18" as="offset" />
          </mxGeometry>
        </mxCell>
        <mxCell id="O4c5-oZYDhCjqvf8xjBU-3" value="" style="shape=image;verticalLabelPosition=bottom;labelBackgroundColor=default;verticalAlign=top;aspect=fixed;imageAspect=0;image=https://logos-world.net/wp-content/uploads/2020/11/GitHub-Logo.png;" vertex="1" parent="1">
          <mxGeometry x="90" y="150" width="88.88" height="50" as="geometry" />
        </mxCell>
        <mxCell id="O4c5-oZYDhCjqvf8xjBU-27" value="" style="edgeStyle=orthogonalEdgeStyle;rounded=0;orthogonalLoop=1;jettySize=auto;html=1;" edge="1" parent="1" source="O4c5-oZYDhCjqvf8xjBU-12" target="O4c5-oZYDhCjqvf8xjBU-13">
          <mxGeometry relative="1" as="geometry">
            <Array as="points">
              <mxPoint x="390" y="174" />
              <mxPoint x="390" y="174" />
            </Array>
          </mxGeometry>
        </mxCell>
        <mxCell id="O4c5-oZYDhCjqvf8xjBU-12" value="" style="shape=image;verticalLabelPosition=bottom;labelBackgroundColor=default;verticalAlign=top;aspect=fixed;imageAspect=0;image=https://tunnelix.com/wp-content/uploads/2020/04/docker-jenkins.png;" vertex="1" parent="1">
          <mxGeometry x="230" y="141.5" width="134" height="67" as="geometry" />
        </mxCell>
        <mxCell id="O4c5-oZYDhCjqvf8xjBU-28" style="edgeStyle=orthogonalEdgeStyle;rounded=0;orthogonalLoop=1;jettySize=auto;html=1;entryX=0;entryY=0.5;entryDx=0;entryDy=0;" edge="1" parent="1" source="O4c5-oZYDhCjqvf8xjBU-13" target="O4c5-oZYDhCjqvf8xjBU-15">
          <mxGeometry relative="1" as="geometry">
            <Array as="points">
              <mxPoint x="468" y="65" />
            </Array>
          </mxGeometry>
        </mxCell>
        <mxCell id="O4c5-oZYDhCjqvf8xjBU-29" style="edgeStyle=orthogonalEdgeStyle;rounded=0;orthogonalLoop=1;jettySize=auto;html=1;entryX=0;entryY=0.5;entryDx=0;entryDy=0;" edge="1" parent="1" source="O4c5-oZYDhCjqvf8xjBU-13" target="O4c5-oZYDhCjqvf8xjBU-17">
          <mxGeometry relative="1" as="geometry" />
        </mxCell>
        <mxCell id="O4c5-oZYDhCjqvf8xjBU-13" value="" style="shape=image;verticalLabelPosition=bottom;labelBackgroundColor=default;verticalAlign=top;aspect=fixed;imageAspect=0;image=https://upload.wikimedia.org/wikipedia/commons/2/24/Ansible_logo.svg;" vertex="1" parent="1">
          <mxGeometry x="440" y="138.5" width="56.89" height="70" as="geometry" />
        </mxCell>
        <mxCell id="O4c5-oZYDhCjqvf8xjBU-15" value="" style="shape=image;verticalLabelPosition=bottom;labelBackgroundColor=default;verticalAlign=top;aspect=fixed;imageAspect=0;image=https://docs.sedex.admin.ch/assets/docker-hub-logo.png;" vertex="1" parent="1">
          <mxGeometry x="530" y="40" width="201.13" height="50" as="geometry" />
        </mxCell>
        <mxCell id="O4c5-oZYDhCjqvf8xjBU-17" value="" style="shape=image;verticalLabelPosition=bottom;labelBackgroundColor=default;verticalAlign=top;aspect=fixed;imageAspect=0;image=https://1000logos.net/wp-content/uploads/2022/07/Kubernetes-Logo.png;" vertex="1" parent="1">
          <mxGeometry x="590" y="138.5" width="127.11" height="71.5" as="geometry" />
        </mxCell>
      </root>
    </mxGraphModel>
  </diagram>
</mxfile>
